<svg width="24" height="24" viewBox="0 0 24 24" fill="none" xmlns="http://www.w3.org/2000/svg">
  <path d="M21.7 12c0-.34-.03-.67-.08-1l1.97-1.54a.47.47 0 0 0 .11-.6l-1.87-3.24a.47.47 0 0 0-.57-.22l-2.32.94c-.53-.41-1.12-.75-1.75-1l-.35-2.48a.47.47 0 0 0-.46-.4h-3.74a.47.47 0 0 0-.46.4l-.35 2.48a7.04 7.04 0 0 0-1.75 1l-2.32-.94a.47.47 0 0 0-.57.22L5.33 8.86a.47.47 0 0 0 .11.6L7.4 11a7.3 7.3 0 0 0 0 2l-1.97 1.54a.47.47 0 0 0-.11.6l1.87 3.24c.12.2.37.28.57.22l2.32-.94c.53.41 1.12.75 1.75 1l.35 2.48c.04.22.23.4.46.4h3.74c.23 0 .42-.18.46-.4l.35-2.48a7.04 7.04 0 0 0 1.75-1l2.32.94c.2.08.45 0 .57-.22l1.87-3.24a.47.47 0 0 0-.11-.6L21.78 13c.05-.33.08-.66.08-1zM12 15.5a3.5 3.5 0 1 1 0-7 3.5 3.5 0 0 1 0 7z" fill="currentColor"/>
</svg>